<svg xmlns="http://www.w3.org/2000/svg" xmlns:xlink="http://www.w3.org/1999/xlink" viewBox="0 0 362.05 315.27"><defs><style>.cls-1{fill:url(#linear-gradient);}.cls-2{fill:url(#linear-gradient-2);}.cls-3{fill:url(#linear-gradient-3);}.cls-4{fill:url(#linear-gradient-4);}.cls-5{fill:url(#linear-gradient-5);}.cls-6{fill:url(#linear-gradient-6);}.cls-7{fill:url(#linear-gradient-7);}.cls-8{fill:url(#linear-gradient-8);}.cls-9{fill:url(#linear-gradient-9);}.cls-10{fill:url(#linear-gradient-10);}.cls-11{fill:url(#linear-gradient-11);}.cls-12{fill:url(#linear-gradient-12);}.cls-13{fill:url(#linear-gradient-13);}.cls-14{fill:url(#linear-gradient-14);}.cls-15{fill:url(#linear-gradient-15);}.cls-16{fill:url(#linear-gradient-16);}</style><linearGradient id="linear-gradient" x1="37.42" y1="53.08" x2="67.28" y2="53.08" gradientUnits="userSpaceOnUse"><stop offset="0" stop-color="#6b75b8"/><stop offset="1" stop-color="#4399d4" stop-opacity="0.5"/></linearGradient><linearGradient id="linear-gradient-2" x1="0" y1="14.93" x2="29.86" y2="14.93" xlink:href="#linear-gradient"/><linearGradient id="linear-gradient-3" x1="74.63" y1="53.08" x2="104.48" y2="53.08" xlink:href="#linear-gradient"/><linearGradient id="linear-gradient-4" x1="0" y1="53.08" x2="29.86" y2="53.08" xlink:href="#linear-gradient"/><linearGradient id="linear-gradient-5" x1="111.83" y1="14.93" x2="141.69" y2="14.93" xlink:href="#linear-gradient"/><linearGradient id="linear-gradient-6" x1="74.63" y1="14.93" x2="104.48" y2="14.93" xlink:href="#linear-gradient"/><linearGradient id="linear-gradient-7" x1="37.42" y1="14.93" x2="67.28" y2="14.93" xlink:href="#linear-gradient"/><linearGradient id="linear-gradient-8" x1="111.83" y1="53.08" x2="141.69" y2="53.08" xlink:href="#linear-gradient"/><linearGradient id="linear-gradient-9" x1="331.6" y1="262.31" x2="361.46" y2="262.31" gradientUnits="userSpaceOnUse"><stop offset="0" stop-color="#3f74ba"/><stop offset="1" stop-color="#76c379" stop-opacity="0.5"/></linearGradient><linearGradient id="linear-gradient-10" x1="294.05" y1="300.34" x2="323.91" y2="300.34" xlink:href="#linear-gradient-9"/><linearGradient id="linear-gradient-11" x1="331.01" y1="225.12" x2="360.87" y2="225.12" xlink:href="#linear-gradient-9"/><linearGradient id="linear-gradient-12" x1="332.19" y1="299.73" x2="362.05" y2="299.73" xlink:href="#linear-gradient-9"/><linearGradient id="linear-gradient-13" x1="292.28" y1="188.52" x2="322.13" y2="188.52" xlink:href="#linear-gradient-9"/><linearGradient id="linear-gradient-14" x1="292.87" y1="225.72" x2="322.72" y2="225.72" xlink:href="#linear-gradient-9"/><linearGradient id="linear-gradient-15" x1="293.46" y1="262.92" x2="323.31" y2="262.92" xlink:href="#linear-gradient-9"/><linearGradient id="linear-gradient-16" x1="330.42" y1="187.92" x2="360.28" y2="187.92" xlink:href="#linear-gradient-9"/></defs><title>bubble box</title><g id="Layer_2" data-name="Layer 2"><g id="Layer_1-2" data-name="Layer 1"><g id="bubble_box" data-name="bubble box"><circle class="cls-1" cx="52.35" cy="53.08" r="14.93"/><circle class="cls-2" cx="14.93" cy="14.93" r="14.93"/><circle class="cls-3" cx="89.55" cy="53.08" r="14.93"/><circle class="cls-4" cx="14.93" cy="53.08" r="14.93"/><circle class="cls-5" cx="126.76" cy="14.93" r="14.93"/><circle class="cls-6" cx="89.55" cy="14.93" r="14.93"/><circle class="cls-7" cx="52.35" cy="14.93" r="14.93"/><circle class="cls-8" cx="126.76" cy="53.08" r="14.93"/><circle class="cls-9" cx="346.53" cy="262.31" r="14.93"/><circle class="cls-10" cx="308.98" cy="300.34" r="14.93"/><circle class="cls-11" cx="345.94" cy="225.12" r="14.93"/><circle class="cls-12" cx="347.12" cy="299.73" r="14.93"/><circle class="cls-13" cx="307.21" cy="188.52" r="14.93"/><circle class="cls-14" cx="307.8" cy="225.72" r="14.93"/><circle class="cls-15" cx="308.38" cy="262.92" r="14.93"/><circle class="cls-16" cx="345.35" cy="187.92" r="14.93"/></g></g></g></svg>