<svg xmlns="http://www.w3.org/2000/svg" xmlns:xlink="http://www.w3.org/1999/xlink" viewBox="0 0 1336 768"><defs><style>.cls-1{fill:url(#linear-gradient);}.cls-2{fill:url(#linear-gradient-2);}.cls-3{fill:url(#linear-gradient-3);}</style><linearGradient id="linear-gradient" y1="384" x2="1336" y2="384" gradientUnits="userSpaceOnUse"><stop offset="0" stop-color="#4cc7e6"/><stop offset="1" stop-color="#4460ac"/></linearGradient><linearGradient id="linear-gradient-2" x1="65.09" y1="694.52" x2="1336" y2="694.52" gradientUnits="userSpaceOnUse"><stop offset="0" stop-color="#6fbae7"/><stop offset="1" stop-color="#e0e46f" stop-opacity="0.2"/><stop offset="1" stop-color="#e5e766"/></linearGradient><linearGradient id="linear-gradient-3" x1="336.23" y1="105.63" x2="1161.35" y2="105.63" gradientUnits="userSpaceOnUse"><stop offset="0" stop-color="#70b1e1"/><stop offset="1" stop-color="#6fbf5a" stop-opacity="0.1"/></linearGradient></defs><title>last_section_backg</title><g id="Layer_2" data-name="Layer 2"><g id="last_section_backg"><polygon class="cls-1" points="0 120.15 1051.22 25.61 1092.11 21.93 1336 0 1336 768 30.36 768 0 768 0 120.15"/><path class="cls-2" d="M87.55,722.7s37.88-116.42,191.54-100.08S861.68,735,1049.6,722.7,1336,681.85,1336,681.85V768H65.09Z"/><path class="cls-3" d="M972.2,32.72S1084.32,16,1129.26,58.87s44.93,94-14.3,118.47-187.8-60-371.75-83.74-407-3.69-407-3.69Z"/></g></g></svg>