<svg xmlns="http://www.w3.org/2000/svg" xmlns:xlink="http://www.w3.org/1999/xlink" viewBox="0 0 261.2 244.22"><defs><style>.cls-1{fill:url(#linear-gradient);}.cls-2{fill:url(#linear-gradient-2);}.cls-3{fill:url(#linear-gradient-3);}</style><linearGradient id="linear-gradient" x1="34.27" y1="107.01" x2="253.59" y2="107.01" gradientUnits="userSpaceOnUse"><stop offset="0" stop-color="#6355a4"/><stop offset="1" stop-color="#2bb8eb" stop-opacity="0.4"/></linearGradient><linearGradient id="linear-gradient-2" x1="74.19" y1="184.3" x2="293.52" y2="184.3" gradientTransform="matrix(0.19, 0.98, -0.98, 0.19, 305.65, -82.79)" xlink:href="#linear-gradient"/><linearGradient id="linear-gradient-3" x1="64.55" y1="240.77" x2="283.87" y2="240.77" gradientTransform="translate(248.03 -129.26) rotate(63.89)" xlink:href="#linear-gradient"/></defs><title>leftsidepoly</title><g id="Layer_2" data-name="Layer 2"><g id="Layer_1-2" data-name="Layer 1"><path class="cls-1" d="M244.85,144.91l-49.72,57a35.48,35.48,0,0,1-33.56,11.49L87.38,198.78a35.46,35.46,0,0,1-26.73-23.32L36.18,103.92A35.47,35.47,0,0,1,43,69.11l49.71-57A35.45,35.45,0,0,1,126.29.67l74.19,14.57a35.46,35.46,0,0,1,26.73,23.32l24.47,71.54A35.47,35.47,0,0,1,244.85,144.91Z"/><path class="cls-2" d="M142.51,239.47,77,201.66A35.45,35.45,0,0,1,59.3,170.94V95.34A35.48,35.48,0,0,1,77,64.61l65.47-37.8a35.47,35.47,0,0,1,35.48,0l65.47,37.8A35.48,35.48,0,0,1,261.2,95.34v75.6a35.45,35.45,0,0,1-17.74,30.72L178,239.47A35.52,35.52,0,0,1,142.51,239.47Z"/><path class="cls-3" d="M118.89,240.43l-73-19.56a35.48,35.48,0,0,1-25.08-25.09l-19.57-73a35.47,35.47,0,0,1,9.18-34.26L63.85,35a35.49,35.49,0,0,1,34.27-9.18l73,19.57A35.47,35.47,0,0,1,196.23,70.5l19.57,73a35.47,35.47,0,0,1-9.18,34.26l-53.46,53.46A35.49,35.49,0,0,1,118.89,240.43Z"/></g></g></svg>