<svg xmlns="http://www.w3.org/2000/svg" viewBox="0 0 142.33 133.95"><defs><style>.cls-1{fill:none;stroke:#d1d3d4;stroke-miterlimit:10;}</style></defs><title>qube_grp_left</title><g id="Layer_2" data-name="Layer 2"><g id="Layer_1-2" data-name="Layer 1"><g id="qube_grp_left"><polygon class="cls-1" points="98.53 58.05 80.4 78.45 54.72 69.2 47.17 39.54 65.29 19.13 90.97 28.38 98.53 58.05"/><polygon class="cls-1" points="110.7 112.96 92.58 133.37 66.9 124.11 59.35 94.45 77.47 74.04 103.15 83.3 110.7 112.96"/><polygon class="cls-1" points="141.78 43.92 123.65 64.33 97.97 55.07 90.42 25.41 108.55 5 134.23 14.26 141.78 43.92"/><polygon class="cls-1" points="51.91 94.24 33.78 114.65 8.1 105.39 0.55 75.73 18.68 55.32 44.35 64.58 51.91 94.24"/><polygon class="cls-1" points="117.65 83.93 99.53 104.34 73.85 95.08 66.3 65.42 84.42 45.01 110.1 54.27 117.65 83.93"/><polygon class="cls-1" points="85.45 94.44 67.33 114.85 41.65 105.6 34.09 75.94 52.22 55.53 77.9 64.78 85.45 94.44"/><polygon class="cls-1" points="106.34 39.5 88.22 59.91 62.54 50.66 54.98 20.99 73.11 0.58 98.79 9.84 106.34 39.5"/><polygon class="cls-1" points="119.72 67.26 101.59 87.67 75.92 78.42 68.36 48.75 86.49 28.34 112.17 37.6 119.72 67.26"/><polygon class="cls-1" points="68.18 67.96 50.05 88.36 24.37 79.11 16.82 49.45 34.95 29.04 60.63 38.29 68.18 67.96"/></g></g></g></svg>