<svg xmlns="http://www.w3.org/2000/svg" viewBox="0 0 173.14 135.23"><defs><style>.cls-1{fill:none;stroke:#d1d3d4;stroke-miterlimit:10;}</style></defs><title>qube_grp_right</title><g id="Layer_2" data-name="Layer 2"><g id="Layer_1-2" data-name="Layer 1"><g id="qube_grp_right"><polygon class="cls-1" points="119.44 58.88 95.63 79.14 65.94 69.38 60.05 39.37 83.86 19.11 113.55 28.87 119.44 58.88"/><polygon class="cls-1" points="128.18 114.41 104.37 134.67 74.68 124.91 68.79 94.9 92.6 74.64 122.29 84.4 128.18 114.41"/><polygon class="cls-1" points="172.59 45.38 148.78 65.64 119.09 55.88 113.2 25.87 137.01 5.61 166.7 15.37 172.59 45.38"/><polygon class="cls-1" points="59.93 94.56 36.13 114.81 6.43 105.05 0.55 75.04 24.35 54.78 54.05 64.54 59.93 94.56"/><polygon class="cls-1" points="139.55 85.28 115.74 105.53 86.05 95.78 80.16 65.77 103.97 45.51 133.66 55.27 139.55 85.28"/><polygon class="cls-1" points="99.97 95.33 76.17 115.58 46.48 105.83 40.59 75.81 64.39 55.56 94.09 65.32 99.97 95.33"/><polygon class="cls-1" points="130.73 40.33 106.92 60.59 77.23 50.83 71.34 20.82 95.15 0.56 124.84 10.32 130.73 40.33"/><polygon class="cls-1" points="143.78 68.53 119.97 88.78 90.28 79.02 84.39 49.01 108.2 28.76 137.89 38.52 143.78 68.53"/><polygon class="cls-1" points="82.14 68.35 58.34 88.61 28.64 78.85 22.76 48.84 46.56 28.58 76.26 38.34 82.14 68.35"/></g></g></g></svg>