<svg xmlns="http://www.w3.org/2000/svg" xmlns:xlink="http://www.w3.org/1999/xlink" viewBox="0 0 1336 768"><defs><style>.cls-1{fill:url(#linear-gradient);}.cls-2{fill:url(#linear-gradient-2);}.cls-3{fill:url(#linear-gradient-3);}</style><linearGradient id="linear-gradient" y1="384" x2="1336" y2="384" gradientUnits="userSpaceOnUse"><stop offset="0" stop-color="#4152a4"/><stop offset="1" stop-color="#5cc9e0"/></linearGradient><linearGradient id="linear-gradient-2" x1="77.34" y1="183.84" x2="1300.16" y2="183.84" gradientUnits="userSpaceOnUse"><stop offset="0" stop-color="#4160ac"/><stop offset="1" stop-color="#7ac8a4"/></linearGradient><linearGradient id="linear-gradient-3" x1="36.49" y1="646.34" x2="1163.23" y2="646.34" xlink:href="#linear-gradient"/></defs><title>section-background</title><g id="Layer_2" data-name="Layer 2"><g id="section-background"><polygon class="cls-1" points="0 0 243.18 16.29 1336 89.51 1336 768 58.96 768 0 768 0 0"/><path class="cls-2" d="M234.91,15.74C105.94,71.13,77.34,87.47,77.34,134.45s0,118.46,87.83,149.1,204.26-167.49,516.77-34.72,518.8,120.51,565.78,57.19,65.37-185.87,42.9-198.13l-12.27-22.24Z"/><path class="cls-3" d="M54.87,743.13c69.45-69.45,249.19-273.7,447.32-204.26s455.49,196.19,576,95S1155.81,768,1155.81,768H36.49Z"/></g></g></svg>